<svg id="Calque_1" data-name="Calque 1" xmlns="http://www.w3.org/2000/svg" viewBox="0 0 1196.81 1083.93"><defs><style>.cls-1{fill:#d87c3d;stroke:#1e1e1e;stroke-miterlimit:10;stroke-width:3px;}</style></defs><path class="cls-1" d="M154.68,397.72l-23.15,11.57-4.76,4.77,6.46,3.4L159.11,427l19.06,5.78L212.55,443l33.71,9.87,29.61,8.85L319.45,474l17.36,4.08,28.25,6.81L389.91,491l32,7.15,25.54,4.76,19.4,3.41,16.34,2.38,24.51,3.06,36.77,1,21.79-2.72,14-4.43,6.81-4.08,7.49-4.77,7.15-8.85,5.79-9.19,1.36-12.25-.34-14-2.73-9.19-8.85-16L582.94,411l-17-13.62-22.12-12.94L531.19,379l-5.79-1v8.51l2.39,5.78,1.36,6.81.34,15.66-1.36,9.53-2,8.85-7.15,9.54-7.49,5.44-10.9,3.75-15.32,2.38-8.17.34s-10.89-.68-11.91-.68-18.38-1.7-18.38-1.7l-22.47-2.73-19.07-3.06L372.89,442l-18.38-3.41-28.6-5.11L302.09,429l-21.45-4.77-19.75-4.42L220,410.66l-29.61-7.49-20.09-3.75-6.81-3.06Z"/></svg>