<svg id="Calque_1" data-name="Calque 1" xmlns="http://www.w3.org/2000/svg" viewBox="0 0 1920 1080"><defs><style>.cls-1{fill:none;}.cls-2{fill:#be3d2c;}</style></defs><path class="cls-1" d="M1016.85,585.87H921.31V481.1h95.54Zm-65-85.8c-.94-.4-1.58-.64-2.2-1-8.9-4.63-14.69-.07-14.31,11,.06,1.78-1,3.85-2,5.41-4.72,7.3-2.61,14.59,5.06,17,1.18.36,2.39.59,3.94,1-.58.83-.89,1.33-1.26,1.78-7,8.53-5.22,15.76,4.59,19.21a7.39,7.39,0,0,1,3.37,3.11c5.13,8.58,12.4,8.28,16.93-.82l1.36-2.7c.84,1.62,1.5,3.06,2.29,4.41,4,6.82,10.83,7.23,14.88.53a11.45,11.45,0,0,1,6.53-5.44c7-2.45,8.7-9.62,4.21-16.19-.86-1.25-1.83-2.41-3.06-4,1.09-.2,1.74-.3,2.38-.45,9.65-2.21,11.9-9.55,5.92-18.52-1-1.53-1.17-4.11-1.16-6.2,0-8.34-5.56-13-12.43-10.1-1.31.55-2.56,1.3-4.22,2.16.09-1.09.11-1.69.19-2.29,1.48-11.26-4.07-16.34-13.52-12.63a7.59,7.59,0,0,1-5.17-.43c-7.45-3-13.08,1.59-12.69,10.52C951.53,496.85,951.71,498.27,951.88,500.07Z"/><path d="M951.88,500.07c-.17-1.8-.35-3.22-.41-4.65-.39-8.93,5.24-13.5,12.69-10.52a7.59,7.59,0,0,0,5.17.43c9.45-3.71,15,1.37,13.52,12.63-.08.6-.1,1.2-.19,2.29,1.66-.86,2.91-1.61,4.22-2.16,6.87-2.89,12.46,1.76,12.43,10.1,0,2.09.14,4.67,1.16,6.2,6,9,3.73,16.31-5.92,18.52-.64.15-1.29.25-2.38.45,1.23,1.61,2.2,2.77,3.06,4,4.49,6.57,2.76,13.74-4.21,16.19a11.45,11.45,0,0,0-6.53,5.44c-4,6.7-10.87,6.29-14.88-.53-.79-1.35-1.45-2.79-2.29-4.41l-1.36,2.7c-4.53,9.1-11.8,9.4-16.93.82a7.39,7.39,0,0,0-3.37-3.11c-9.81-3.45-11.58-10.68-4.59-19.21.37-.45.68-.95,1.26-1.78-1.55-.39-2.76-.62-3.94-1-7.67-2.37-9.78-9.66-5.06-17,1-1.56,2.1-3.63,2-5.41-.38-11.1,5.41-15.66,14.31-11C950.3,499.43,950.94,499.67,951.88,500.07Zm27.83,19.05-.08-.09-6.88,6.34c7.69,3.16,14.43,5.8,21.76,4.64,6.72-1.06,8.94-7.26,4.47-12.92a9.65,9.65,0,0,1-2.3-8.15c.82-6.23-3-10.24-7.89-8.48-8.34,3-12.38,11.12-17.14,18.31l.62,1.23Zm-21.49,18.75.1.09,4.15-10.77c-10,2.66-17.53,7-20.87,11.54-3.8,5.21-2.57,10.87,3.17,12.27,3.6.88,5.52,2.92,7.36,6.28,2.5,4.59,6.64,4.84,9.74,1.19,4.09-4.81,6.38-20.79,3.63-27.84Zm10.37-6.62c-.72,8.47-1.05,16.62,2.34,24.14,3.29,7.29,8.74,7.55,12.37.57,1.32-2.55,2.66-4,5.44-4.57,6.72-1.28,8.5-7.55,3.88-13.15-5.29-6.42-12.51-8.35-19.78-10.48,1.31,4,1.28,8.74,5.88,10.22.7.23,1.58,2.1,1.4,2.92a3,3,0,0,1-2.42,1.9,3.29,3.29,0,0,1-2-2.47C975.68,534.87,971.77,533.58,968.59,531.25Zm-7.52-6.49c-2.88-2.33-5.1-5.62-9.17-4.92-1.11.19-2.43-.66-3.49-1.35a6.57,6.57,0,0,1,.73-2.74c1.24.09,2.85.19,3.6,1.08,2.93,3.51,6.37,2.72,10.94,3-5.14-8-9.11-15.24-16.29-18.8-5.79-2.87-10.34.89-9.46,8a9.83,9.83,0,0,1-2.34,8.13c-4.33,5.64-2.32,11.64,4.22,12.78C947.27,531.25,954.16,528.66,961.07,524.76Zm8.85-7c5.16-6.71,10-13.52,10.72-22.73.47-6.14-3.53-9.89-8.53-7.61-3.42,1.55-6.11,1.82-9.54,0-3.91-2.07-7.48.3-8.42,4.6-1.43,6.48,5.33,22.22,11.5,25.74.42-4.31,3.06-8.14-.06-12.46-.38-.53.17-2.54.82-3.23a2.42,2.42,0,0,1,2.66.08c.56.81.9,2.81.45,3.39C966.19,509.77,969.09,513.6,969.92,517.74Z"/><path class="cls-2" d="M968.59,531.25c3.18,2.33,7.09,3.62,7.11,9.08a3.29,3.29,0,0,0,2,2.47,3,3,0,0,0,2.42-1.9c.18-.82-.7-2.69-1.4-2.92-4.6-1.48-4.57-6.19-5.88-10.22,7.27,2.13,14.49,4.06,19.78,10.48,4.62,5.6,2.84,11.87-3.88,13.15-2.78.53-4.12,2-5.44,4.57-3.63,7-9.08,6.72-12.37-.57C967.54,547.87,967.87,539.72,968.59,531.25Z"/><path class="cls-2" d="M958.22,537.87l7.28-7.24c2.75,7,.46,23-3.63,27.84-3.1,3.65-7.24,3.4-9.74-1.19-1.84-3.36-3.76-5.4-7.36-6.28-5.74-1.4-7-7.06-3.17-12.27,3.34-4.58,10.86-8.88,20.87-11.54-1.58,4.11-2.86,7.44-4.15,10.77a21.49,21.49,0,0,0-3.78,1.72,4.15,4.15,0,0,0,.76,2.71,3.2,3.2,0,0,0,2.59.09A29.35,29.35,0,0,0,958.22,537.87Z"/><path class="cls-2" d="M979.71,519.12l-7.44.88-.62-1.23c4.76-7.19,8.8-15.28,17.14-18.31,4.85-1.76,8.71,2.25,7.89,8.48a9.65,9.65,0,0,0,2.3,8.15c4.47,5.66,2.25,11.86-4.47,12.92-7.33,1.16-14.07-1.48-21.76-4.64l6.89-6.34c1.22.4,2.45,1.15,3.64,1.06a4.82,4.82,0,0,0,3-1.77,3.42,3.42,0,0,0-1-2.66,3.57,3.57,0,0,0-3,.47A15.15,15.15,0,0,0,979.71,519.12Z"/><path class="cls-2" d="M961.07,524.76c-6.91,3.9-13.8,6.49-21.26,5.19-6.54-1.14-8.55-7.14-4.22-12.78a9.83,9.83,0,0,0,2.34-8.13c-.88-7.11,3.67-10.87,9.46-8,7.18,3.56,11.15,10.85,16.29,18.8-4.57-.29-8,.5-10.94-3-.75-.89-2.36-1-3.6-1.08a6.57,6.57,0,0,0-.73,2.74c1.06.69,2.38,1.54,3.49,1.35C956,519.14,958.19,522.43,961.07,524.76Z"/><path class="cls-2" d="M969.92,517.74c-.83-4.14-3.73-8-.4-12.22.45-.58.11-2.58-.45-3.39a2.42,2.42,0,0,0-2.66-.08c-.65.69-1.2,2.7-.82,3.23,3.12,4.32.48,8.15.06,12.46-6.17-3.52-12.93-19.26-11.5-25.74.94-4.3,4.51-6.67,8.42-4.6,3.43,1.82,6.12,1.55,9.54,0,5-2.28,9,1.47,8.53,7.61C979.92,504.22,975.08,511,969.92,517.74Z"/><path d="M958.22,537.87a29.35,29.35,0,0,1-.33,4.61,3.2,3.2,0,0,1-2.59-.09,4.15,4.15,0,0,1-.76-2.71,21.49,21.49,0,0,1,3.78-1.72Z"/><path d="M979.71,519.12a15.15,15.15,0,0,1,2.58-3,3.57,3.57,0,0,1,3-.47,3.42,3.42,0,0,1,1,2.66,4.82,4.82,0,0,1-3,1.77c-1.19.09-2.42-.66-3.64-1.06C979.63,519,979.71,519.12,979.71,519.12Z"/></svg>